<?xml version="1.0" standalone="no"?>
<!DOCTYPE svg PUBLIC "-//W3C//DTD SVG 20010904//EN"
 "http://www.w3.org/TR/2001/REC-SVG-20010904/DTD/svg10.dtd">
<svg version="1.0" xmlns="http://www.w3.org/2000/svg"
 width="500.000000pt" height="500.000000pt" viewBox="0 0 500.000000 500.000000"
 preserveAspectRatio="xMidYMid meet">
<metadata>
Created by potrace 1.14, written by Peter Selinger 2001-2017
</metadata>
<g transform="translate(0.000000,500.000000) scale(0.100000,-0.100000)"
fill="#000000" stroke="none">
<path d="M292 4988 c-7 -7 -12 -9 -12 -4 0 4 -14 -3 -32 -15 -17 -13 -29 -18
-25 -12 5 8 0 8 -17 0 -13 -7 -22 -15 -20 -18 2 -4 -7 -10 -21 -13 -14 -4 -24
-12 -22 -19 1 -6 -4 -11 -11 -9 -8 1 -11 -2 -7 -8 3 -5 -5 -15 -19 -21 -14 -7
-23 -16 -20 -20 3 -5 1 -9 -4 -9 -6 0 -13 -11 -16 -25 -4 -14 -11 -25 -16 -25
-5 0 -7 -9 -5 -20 2 -11 0 -18 -6 -15 -5 4 -9 -3 -9 -14 0 -12 -5 -21 -11 -21
-6 0 -8 -7 -5 -16 3 -8 2 -12 -4 -9 -7 4 -10 -744 -10 -2185 0 -1935 2 -2193
15 -2206 8 -9 15 -27 15 -40 0 -14 7 -32 16 -41 8 -9 13 -22 10 -29 -5 -13 6
-19 27 -15 5 1 6 -3 2 -9 -3 -6 10 -26 29 -45 20 -19 36 -39 36 -44 0 -10 39
-27 52 -23 5 1 8 -3 8 -9 0 -6 7 -8 16 -5 8 3 13 2 10 -3 -6 -10 22 -25 41
-22 6 1 14 -3 18 -9 7 -11 4328 -15 4384 -4 19 4 28 11 24 18 -4 7 -2 7 7 -1
14 -12 43 -6 35 8 -3 4 4 6 15 4 11 -2 20 0 20 6 0 5 3 8 8 7 15 -3 42 15 35
25 -3 5 -1 7 5 3 6 -3 13 -2 17 4 4 6 11 7 17 4 7 -5 9 -1 5 9 -4 12 -2 14 10
10 11 -4 14 -2 9 5 -3 6 3 16 14 22 11 6 20 18 20 28 0 15 2 15 11 2 8 -12 9
-11 7 5 -2 11 5 29 14 40 10 10 16 25 14 32 -3 7 -1 13 5 13 6 0 9 6 6 14 -3
8 1 22 8 33 12 15 14 347 15 2204 0 2060 -1 2187 -17 2193 -15 6 -15 8 -3 17
12 7 12 11 2 17 -7 5 -14 19 -15 31 -1 13 -6 20 -14 17 -7 -3 -13 -1 -13 4 0
6 5 10 12 10 6 0 3 7 -8 16 -10 8 -13 13 -6 9 6 -3 12 -1 12 4 0 6 -7 11 -16
11 -8 0 -13 4 -10 9 3 5 -1 12 -10 15 -9 4 -14 9 -11 13 9 8 -54 54 -64 47 -5
-3 -9 3 -9 12 0 10 -3 15 -6 11 -3 -3 -17 5 -31 17 -14 13 -34 23 -46 22 -12
-1 -25 3 -29 9 -11 16 -4410 19 -4426 3z"/>
</g>
</svg>
